<?xml version="1.0" encoding="UTF-8" standalone="no"?>
<svg width="12px" height="12px" viewBox="0 0 12 12" version="1.1" xmlns="http://www.w3.org/2000/svg" xmlns:xlink="http://www.w3.org/1999/xlink">
    <!-- Generator: Sketch 3.8.3 (29802) - http://www.bohemiancoding.com/sketch -->
    <title>editor-list-view-hambuger-menu-outline-stroke copy</title>
    <desc>Created with Sketch.</desc>
    <defs></defs>
    <g id="Page-1" stroke="none" stroke-width="1" fill="none" fill-rule="evenodd">
        <g id="hamburger3" transform="translate(-3.000000, 0.000000)" fill="#2B2B2B">
            <g id="miu">
                <g id="Artboard-1">
                    <path d="M8.65685425,6.36396103 L3.98535555,11.0354597 C3.83361268,11.1872026 3.54881527,11.155417 3.35355339,10.9601551 C3.15692962,10.7635313 3.12457647,10.4820253 3.27824877,10.3283529 L7.94974747,5.65685425 L3.27824877,0.985355549 C3.1265059,0.833612684 3.15829151,0.548815271 3.35355339,0.353553391 C3.55017716,0.156929622 3.83168325,0.124576466 3.98535555,0.278248768 C3.98535555,0.278248768 7.07865666,3.37154988 8.65664121,4.94953443 L13.3283529,0.278248768 C13.4800958,0.126505903 13.7648932,0.15829151 13.9601551,0.353553391 C14.1567789,0.550177159 14.189132,0.831683247 14.0354597,0.985355549 L9.36396103,5.65685425 L14.0354597,10.3283529 C14.1872026,10.4800958 14.155417,10.7648932 13.9601551,10.9601551 C13.7635313,11.1567789 13.4820253,11.189132 13.3283529,11.0354597 L8.65685425,6.36396103 Z" id="editor-list-view-hambuger-menu-outline-stroke-copy"></path>
                </g>
            </g>
        </g>
    </g>
</svg>