<?xml version="1.0" encoding="UTF-8" standalone="no"?>
<svg width="13px" height="11px" viewBox="0 0 13 11" version="1.1" xmlns="http://www.w3.org/2000/svg" xmlns:xlink="http://www.w3.org/1999/xlink">
    <!-- Generator: Sketch 3.8.3 (29802) - http://www.bohemiancoding.com/sketch -->
    <title>editor-list-view-hambuger-menu-outline-stroke</title>
    <desc>Created with Sketch.</desc>
    <defs></defs>
    <g id="Page-1" stroke="none" stroke-width="1" fill="none" fill-rule="evenodd">
        <g id="hamburger3" fill="#2B2B2B">
            <g id="miu">
                <g id="Artboard-1">
                    <path d="M0.341036091,0 C0.152687364,0 0,0.221932 0,0.5 C0,0.776142 0.155052182,1 0.341036091,1 L12.6589639,1 C12.8473126,1 13,0.778068 13,0.5 C13,0.223858 12.8449478,0 12.6589639,0 L0.341036091,0 L0.341036091,0 L0.341036091,0 Z M0.341036091,5 C0.152687364,5 0,5.221932 0,5.5 C0,5.776142 0.155052182,6 0.341036091,6 L12.6589639,6 C12.8473126,6 13,5.778068 13,5.5 C13,5.223858 12.8449478,5 12.6589639,5 L0.341036091,5 L0.341036091,5 L0.341036091,5 Z M0.341036091,10 C0.152687364,10 0,10.221932 0,10.5 C0,10.776142 0.155052182,11 0.341036091,11 L12.6589639,11 C12.8473126,11 13,10.778068 13,10.5 C13,10.223858 12.8449478,10 12.6589639,10 L0.341036091,10 L0.341036091,10 L0.341036091,10 Z" id="editor-list-view-hambuger-menu-outline-stroke"></path>
                </g>
            </g>
        </g>
    </g>
</svg>