<?xml version="1.0" encoding="UTF-8"?>
<svg width="15px" height="14px" viewBox="0 0 15 14" version="1.1" xmlns="http://www.w3.org/2000/svg" xmlns:xlink="http://www.w3.org/1999/xlink">
    <!-- Generator: Sketch 50.2 (55047) - http://www.bohemiancoding.com/sketch -->
    <title>Shape</title>
    <desc>Created with Sketch.</desc>
    <defs></defs>
    <g id="Page-1" stroke="none" stroke-width="1" fill="none" fill-rule="evenodd">
        <g id="noun_back_1144839" transform="translate(-10.000000, 0.000000)" fill="#000000" fill-rule="nonzero">
            <path d="M23.4,6.3 L12.5,6.3 L17.2,1.6 C17.5,1.3 17.5,0.8 17.2,0.5 C16.9,0.2 16.5,0.2 16.2,0.5 L10.2,6.5 C9.9,6.8 9.9,7.3 10.2,7.6 L16.2,13.6 C16.5,13.9 17,13.9 17.3,13.6 C17.6,13.3 17.6,12.9 17.3,12.6 L12.6,7.8 L23.5,7.8 C23.9,7.8 24.3,7.5 24.3,7 C24.1,6.6 23.8,6.2 23.4,6.3 Z" id="Shape"></path>
        </g>
    </g>
</svg>